# xmcd CD database file
#
# Track frame offsets:
#	150
#	24049
#	46012
#	68073
#	94319
#	120727
#	140405
#	167009
#	192521
#	226661
#	246353
#
# Disc length: 3623 seconds
#
# Revision: 0
# Processed by: cddbd v1.5.2PL0 Copyright (c) Steve Scherf et al.
# Submitted via: CDex 1.70beta1
#
DISCID=890e250b
DTITLE=金子亜里紗 - The Scene Is Clean
DYEAR=2007
DGENRE=Jazz
TTITLE0=The Scene Is Clean
TTITLE1=A BeBop Carroll
TTITLE2=Bevan's Birthday
TTITLE3=Nothing Like Playing Blues
TTITLE4=Soultrane
TTITLE5=My Sound In The Pocket
TTITLE6=On A Misty Night
TTITLE7=Box Junction
TTITLE8=A Tipsy Walk
TTITLE9=Send For Your Tenderness
TTITLE10=Our Delight
EXTD=YEAR: 2007
EXTT0=
EXTT1=
EXTT2=
EXTT3=
EXTT4=
EXTT5=
EXTT6=
EXTT7=
EXTT8=
EXTT9=
EXTT10=
PLAYORDER=
